<svg xmlns="http://www.w3.org/2000/svg" xmlns:xlink="http://www.w3.org/1999/xlink" width="40" zoomAndPan="magnify" viewBox="0 0 30 30.000001" height="40" preserveAspectRatio="xMidYMid meet" version="1.0"><defs><clipPath id="d6503c157f"><path d="M 1.3125 1.453125 L 28 1.453125 L 28 27.582031 L 1.3125 27.582031 Z M 1.3125 1.453125 " clip-rule="nonzero"/></clipPath><clipPath id="dc373f6e4e"><path d="M 7 1.453125 L 22 1.453125 L 22 27.582031 L 7 27.582031 Z M 7 1.453125 " clip-rule="nonzero"/></clipPath><clipPath id="e5bd5aa8bf"><path d="M 13 1.453125 L 16 1.453125 L 16 27.582031 L 13 27.582031 Z M 13 1.453125 " clip-rule="nonzero"/></clipPath><clipPath id="b81b295771"><path d="M 1.3125 14 L 28 14 L 28 16 L 1.3125 16 Z M 1.3125 14 " clip-rule="nonzero"/></clipPath><clipPath id="ce8b7b9de7"><path d="M 20 16 L 28.894531 16 L 28.894531 26 L 20 26 Z M 20 16 " clip-rule="nonzero"/></clipPath><clipPath id="b610f443ed"><path d="M 15 18 L 25 18 L 25 27.582031 L 15 27.582031 Z M 15 18 " clip-rule="nonzero"/></clipPath></defs><g clip-path="url(#d6503c157f)"><path fill="#000000" d="M 14.480469 27.578125 C 7.21875 27.578125 1.3125 21.71875 1.3125 14.515625 C 1.3125 7.3125 7.21875 1.453125 14.480469 1.453125 C 21.738281 1.453125 27.644531 7.3125 27.644531 14.515625 C 27.644531 14.8125 27.636719 15.113281 27.613281 15.410156 C 27.589844 15.800781 27.246094 16.097656 26.851562 16.070312 C 26.457031 16.042969 26.160156 15.703125 26.1875 15.3125 C 26.203125 15.050781 26.214844 14.78125 26.214844 14.515625 C 26.214844 8.097656 20.949219 2.871094 14.480469 2.871094 C 8.007812 2.871094 2.742188 8.097656 2.742188 14.515625 C 2.742188 20.9375 8.007812 26.160156 14.480469 26.160156 C 14.65625 26.160156 14.832031 26.15625 15.007812 26.148438 C 15.40625 26.128906 15.738281 26.433594 15.753906 26.824219 C 15.773438 27.21875 15.464844 27.550781 15.070312 27.566406 C 14.875 27.574219 14.675781 27.578125 14.480469 27.578125 Z M 14.480469 27.578125 " fill-opacity="1" fill-rule="nonzero"/></g><g clip-path="url(#dc373f6e4e)"><path fill="#000000" d="M 14.480469 27.578125 C 12.457031 27.578125 10.59375 26.160156 9.234375 23.582031 C 7.949219 21.148438 7.242188 17.929688 7.242188 14.515625 C 7.242188 11.105469 7.949219 7.882812 9.234375 5.453125 C 10.59375 2.871094 12.457031 1.453125 14.480469 1.453125 C 16.5 1.453125 18.363281 2.871094 19.722656 5.453125 C 21.007812 7.882812 21.714844 11.105469 21.714844 14.515625 C 21.714844 15.351562 21.671875 16.191406 21.585938 17.003906 C 21.546875 17.394531 21.195312 17.675781 20.800781 17.636719 C 20.410156 17.597656 20.121094 17.246094 20.164062 16.855469 C 20.242188 16.09375 20.285156 15.304688 20.285156 14.515625 C 20.285156 8.203125 17.625 2.871094 14.480469 2.871094 C 11.332031 2.871094 8.675781 8.203125 8.675781 14.515625 C 8.675781 20.828125 11.332031 26.160156 14.480469 26.160156 C 14.875 26.160156 15.195312 26.476562 15.195312 26.871094 C 15.195312 27.261719 14.875 27.578125 14.480469 27.578125 Z M 14.480469 27.578125 " fill-opacity="1" fill-rule="nonzero"/></g><g clip-path="url(#e5bd5aa8bf)"><path fill="#000000" d="M 14.480469 27.578125 C 14.082031 27.578125 13.761719 27.261719 13.761719 26.871094 L 13.761719 2.164062 C 13.761719 1.769531 14.082031 1.453125 14.480469 1.453125 C 14.875 1.453125 15.195312 1.769531 15.195312 2.164062 L 15.195312 26.871094 C 15.195312 27.261719 14.875 27.578125 14.480469 27.578125 Z M 14.480469 27.578125 " fill-opacity="1" fill-rule="nonzero"/></g><g clip-path="url(#b81b295771)"><path fill="#000000" d="M 26.503906 15.648438 L 2.453125 15.648438 C 2.058594 15.648438 1.738281 15.328125 1.738281 14.9375 C 1.738281 14.546875 2.058594 14.226562 2.453125 14.226562 L 26.503906 14.226562 C 26.902344 14.226562 27.222656 14.546875 27.222656 14.9375 C 27.222656 15.328125 26.902344 15.648438 26.503906 15.648438 Z M 26.503906 15.648438 " fill-opacity="1" fill-rule="nonzero"/></g><path fill="#000000" d="M 16.046875 22.019531 L 4.203125 22.019531 C 3.808594 22.019531 3.488281 21.703125 3.488281 21.308594 C 3.488281 20.917969 3.808594 20.601562 4.203125 20.601562 L 16.046875 20.601562 C 16.441406 20.601562 16.761719 20.917969 16.761719 21.308594 C 16.761719 21.703125 16.441406 22.019531 16.046875 22.019531 Z M 16.046875 22.019531 " fill-opacity="1" fill-rule="nonzero"/><path fill="#000000" d="M 25.261719 9.273438 L 3.699219 9.273438 C 3.300781 9.273438 2.980469 8.957031 2.980469 8.5625 C 2.980469 8.171875 3.300781 7.855469 3.699219 7.855469 L 25.261719 7.855469 C 25.65625 7.855469 25.976562 8.171875 25.976562 8.5625 C 25.976562 8.957031 25.65625 9.273438 25.261719 9.273438 Z M 25.261719 9.273438 " fill-opacity="1" fill-rule="nonzero"/><g clip-path="url(#ce8b7b9de7)"><path fill="#000000" d="M 23.066406 25.171875 C 22.433594 25.171875 21.828125 24.953125 21.335938 24.546875 L 21.265625 24.488281 C 20.125 23.539062 19.976562 21.847656 20.933594 20.714844 C 21.1875 20.414062 21.640625 20.375 21.941406 20.628906 C 22.246094 20.878906 22.285156 21.328125 22.03125 21.628906 C 21.582031 22.160156 21.652344 22.953125 22.1875 23.398438 L 22.253906 23.457031 C 22.515625 23.675781 22.84375 23.777344 23.179688 23.746094 C 23.519531 23.71875 23.824219 23.558594 24.042969 23.304688 L 27.113281 19.671875 C 27.5625 19.140625 27.492188 18.34375 26.957031 17.898438 L 26.886719 17.839844 C 26.628906 17.625 26.296875 17.523438 25.960938 17.550781 C 25.625 17.582031 25.320312 17.738281 25.101562 17.996094 L 24.582031 18.625 C 24.328125 18.925781 23.878906 18.96875 23.574219 18.71875 C 23.269531 18.472656 23.222656 18.023438 23.476562 17.722656 L 24 17.089844 C 24.46875 16.535156 25.121094 16.199219 25.839844 16.136719 C 26.554688 16.074219 27.253906 16.292969 27.808594 16.753906 L 27.878906 16.8125 C 28.429688 17.269531 28.769531 17.917969 28.832031 18.628906 C 28.894531 19.34375 28.671875 20.035156 28.210938 20.582031 L 25.136719 24.214844 C 24.675781 24.765625 24.023438 25.101562 23.304688 25.164062 C 23.226562 25.167969 23.144531 25.171875 23.066406 25.171875 Z M 23.066406 25.171875 " fill-opacity="1" fill-rule="nonzero"/></g><g clip-path="url(#b610f443ed)"><path fill="#000000" d="M 18.382812 27.578125 C 17.773438 27.578125 17.15625 27.375 16.652344 26.953125 L 16.582031 26.894531 C 15.441406 25.945312 15.292969 24.253906 16.25 23.121094 L 19.320312 19.492188 C 20.277344 18.359375 21.984375 18.210938 23.125 19.160156 L 23.191406 19.21875 C 24.332031 20.167969 24.484375 21.859375 23.527344 22.992188 C 23.273438 23.292969 22.820312 23.332031 22.519531 23.078125 C 22.214844 22.828125 22.175781 22.378906 22.429688 22.078125 C 22.878906 21.546875 22.808594 20.75 22.273438 20.304688 L 22.203125 20.25 C 21.667969 19.800781 20.867188 19.871094 20.417969 20.402344 L 17.347656 24.035156 C 16.898438 24.566406 16.96875 25.363281 17.503906 25.808594 L 17.570312 25.867188 C 18.105469 26.3125 18.910156 26.242188 19.359375 25.710938 L 20.019531 24.929688 C 20.273438 24.628906 20.726562 24.589844 21.027344 24.839844 C 21.332031 25.09375 21.371094 25.539062 21.117188 25.839844 L 20.453125 26.621094 C 19.921875 27.253906 19.15625 27.578125 18.382812 27.578125 Z M 18.382812 27.578125 " fill-opacity="1" fill-rule="nonzero"/></g></svg>